#!OML:ASF F:\VICON\USERDATA\INSTALL\rory3\rory3.ASF
:FULLY-SPECIFIED
:DEGREES
1078
root 2.94626 28.7332 -0.0373821 -175.321 -24.1794 172.859
lowerback 23.0591 -2.70015 -3.37756
upperback 3.81914 -5.2324 -2.24376
thorax -8.56267 -2.70073 1.06056
lowerneck -10.8092 -7.98631 -12.7031
upperneck -4.6241 -9.74638 13.4111
head 1.68351 -4.7727 5.58752
rclavicle 8.33902e-014 -9.54166e-015
rhumerus -23.3151 5.61443 -82.4932
rradius 101.431
rwrist -11.2743
rhand -31.0682 3.88217
rfingers 7.12502
rthumb -4.34901 -26.0532
lclavicle 8.33902e-014 -9.54166e-015
lhumerus 16.5421 -17.5876 63.6824
lradius 87.1979
lwrist 26.0988
lhand -23.0138 26.2135
lfingers 7.12502
lthumb 3.42981 56.1656
rfemur -21.2337 12.4975 19.4617
rtibia 40.6215
rfoot -20.7604 -16.265
rtoes 11.1634
lfemur -71.0148 31.0708 -30.3602
ltibia 105.052
lfoot -5.0994 -30.755
ltoes -15.323
1079
root 2.94619 28.7259 -0.00785546 -175.341 -23.5182 172.775
lowerback 23.1593 -2.59251 -3.33168
upperback 3.74628 -5.08931 -2.2665
thorax -8.707 -2.62874 0.977333
lowerneck -10.8512 -7.95729 -12.7121
upperneck -4.42798 -9.69805 13.2605
head 1.73225 -4.74076 5.54115
rclavicle -1.2921e-014 2.64384e-014
rhumerus -23.0767 6.14981 -82.5865
rradius 100.746
rwrist -10.7594
rhand -31.0791 3.83854
rfingers 7.12502
rthumb -4.35952 -26.0966
lclavicle -1.2921e-014 2.64384e-014
lhumerus 16.1545 -17.1448 63.7395
lradius 87.1599
lwrist 26.101
lhand -22.8967 26.0454
lfingers 7.12502
lthumb 3.54281 55.9957
rfemur -21.5784 12.4137 19.2558
rtibia 40.895
rfoot -20.6455 -15.6154
rtoes 11.4057
lfemur -70.4738 31.763 -30.1996
ltibia 105.157
lfoot -6.56781 -30.3226
ltoes -17.424
1080
root 2.94398 28.7175 0.0219767 -175.479 -22.6381 172.752
lowerback 23.4057 -2.4245 -3.25894
upperback 3.66744 -4.87405 -2.30168
thorax -8.94053 -2.52296 0.852218
lowerneck -10.4629 -7.77097 -12.8575
upperneck -4.72274 -9.45897 13.3208
head 1.56536 -4.6349 5.62278
rclavicle 7.85696e-014 -1.90833e-014
rhumerus -23.0117 6.69169 -82.7249
rradius 100.303
rwrist -10.4249
rhand -30.9483 4.19492
rfingers 7.12502
rthumb -4.23326 -25.7428
lclavicle 7.85696e-014 -1.90833e-014
lhumerus 15.7635 -16.6814 63.8446
lradius 87.1085
lwrist 26.1284
lhand -22.8365 25.9257
lfingers 7.12502
lthumb 3.60098 55.8751
rfemur -21.8134 12.4508 19.119
rtibia 41.1023
rfoot -20.4243 -14.972
rtoes 11.5552
lfemur -69.7462 32.7043 -29.8725
ltibia 105.257
lfoot -7.75998 -29.7674
ltoes -18.6127
1081
root 2.92945 28.7285 0.02934 -175.573 -22.4914 172.389
lowerback 23.3374 -2.53189 -3.20064
upperback 3.76926 -5.01639 -2.37659
thorax -8.7997 -2.60511 0.773227
lowerneck -10.7776 -7.69001 -12.8824
upperneck -4.32607 -9.31673 13.0792
head 1.69884 -4.54539 5.5456
rclavicle 7.34509e-014 -1.78906e-014
rhumerus -22.5244 7.49024 -82.762
rradius 99.6127
rwrist -10.4409
rhand -31.0378 4.55762
rfingers 7.12502
rthumb -4.31963 -25.3783
lclavicle 7.34509e-014 -1.78906e-014
lhumerus 15.4136 -16.0964 63.9863
lradius 87.1064
lwrist 26.1644
lhand -22.868 25.841
lfingers 7.12502
lthumb 3.57054 55.7908
rfemur -21.6372 11.8454 18.753
rtibia 41.2644
rfoot -20.4296 -14.5026
rtoes 11.3309
lfemur -68.3919 32.8327 -29.6147
ltibia 105.17
lfoot -8.98191 -29.1519
ltoes -19.4188
1082
root 2.9093 28.7436 0.0259851 -175.536 -22.2202 171.854
lowerback 22.9386 -2.60898 -3.3361
upperback 3.95943 -5.16291 -2.5245
thorax -8.37869 -2.69756 0.701371
lowerneck -10.9955 -7.51612 -12.8171
upperneck -4.38669 -9.07422 12.9306
head 1.67171 -4.42674 5.5044
rclavicle 3.2054e-014 7.15625e-015
rhumerus -21.5865 8.43577 -82.845
rradius 98.62
rwrist -10.324
rhand -31.4722 4.74648
rfingers 7.12502
rthumb -4.73906 -25.1805
lclavicle 3.2054e-014 7.15625e-015
lhumerus 15.1417 -15.3674 64.0305
lradius 87.0978
lwrist 26.0723
lhand -22.7301 25.6525
lfingers 7.12502
lthumb 3.70371 55.6001
rfemur -21.5063 11.2113 18.1728
rtibia 41.4406
rfoot -20.5177 -13.8996
rtoes 11.0391
lfemur -66.8548 33.0143 -29.5456
ltibia 104.971
lfoot -10.4085 -28.47
ltoes -20.4089
1083
root 2.89756 28.7453 0.0328186 -175.42 -21.7214 171.52
lowerback 22.5829 -2.59416 -3.43568
upperback 4.04055 -5.16356 -2.60337
thorax -8.10135 -2.7095 0.647421
lowerneck -10.8947 -7.36162 -12.8752
upperneck -4.64337 -8.86952 12.9208
head 1.5562 -4.33507 5.53624
rclavicle -1.12313e-014 -1.41137e-014
rhumerus -20.9142 9.1943 -82.972
rradius 97.8973
rwrist -9.95988
rhand -31.9585 4.89372
rfingers 7.12502
rthumb -5.20869 -25.0223
lclavicle -1.12313e-014 -1.41137e-014
lhumerus 14.7304 -14.6771 64.1069
lradius 87.2117
lwrist 25.9397
lhand -22.4023 25.4807
lfingers 7.12502
lthumb 4.02032 55.4225
rfemur -21.7724 10.8413 17.7644
rtibia 41.7771
rfoot -20.5174 -13.3876
rtoes 10.7358
lfemur -65.7339 33.4149 -29.4366
ltibia 104.847
lfoot -11.7373 -27.4998
ltoes -20.9682
1084
root 2.9011 28.7295 0.0673093 -175.468 -21.2156 171.575
lowerback 22.7674 -2.58745 -3.23579
upperback 4.00506 -5.11574 -2.57043
thorax -8.25246 -2.68707 0.569947
lowerneck -10.9039 -7.23943 -12.9337
upperneck -4.85155 -8.69983 12.868
head 1.47358 -4.2581 5.54738
rclavicle -2.22142e-014 4.96962e-015
rhumerus -20.7151 9.71856 -83.1044
rradius 97.6721
rwrist -9.59857
rhand -32.1874 4.86004
rfingers 7.12502
rthumb -5.42964 -25.0504
lclavicle -2.22142e-014 4.96962e-015
lhumerus 14.2167 -14.0256 64.2154
lradius 87.4991
lwrist 25.8365
lhand -22.3738 25.9293
lfingers 7.12502
lthumb 4.04779 55.8706
rfemur -22.199 10.7386 17.8126
rtibia 42.1022
rfoot -20.2712 -13.2008
rtoes 10.1659
lfemur -64.9996 33.8558 -28.954
ltibia 104.797
lfoot -12.9064 -25.9609
ltoes -22.4394
1085
root 2.92892 28.6803 0.14537 -175.354 -19.9597 172.041
lowerback 23.287 -2.34177 -3.17754
upperback 3.71643 -4.77278 -2.3713
thorax -8.83963 -2.49311 0.693309
lowerneck -11.0143 -7.05904 -12.858
upperneck -4.90569 -8.45872 12.6808
head 1.42997 -4.14186 5.49478
rclavicle -6.5748e-014 -1.37161e-014
rhumerus -20.5495 10.431 -83.1911
rradius 97.5905
rwrist -9.36649
rhand -32.2847 4.85436
rfingers 7.12502
rthumb -5.52363 -25.0537
lclavicle -6.5748e-014 -1.37161e-014
lhumerus 13.6712 -13.1963 64.2617
lradius 87.7514
lwrist 25.7464
lhand -22.4323 26.731
lfingers 7.12502
lthumb 3.99136 56.6734
rfemur -23.4756 11.4452 18.1748
rtibia 42.5623
rfoot -19.7288 -13.0237
rtoes 9.91301
lfemur -65.3981 34.9385 -28.501
ltibia 104.927
lfoot -13.6555 -23.8313
ltoes -23.8782
1086
root 2.89678 28.7062 0.124779 -175.419 -19.5893 171.387
lowerback 22.9041 -2.37702 -3.41433
upperback 3.87929 -4.89552 -2.55376
thorax -8.45286 -2.57061 0.637823
lowerneck -10.7774 -6.80881 -12.8711
upperneck -5.2551 -8.14268 12.6027
head 1.24663 -3.99995 5.51158
rclavicle 6.78353e-015 7.30534e-015
rhumerus -19.7668 11.3672 -83.1276
rradius 96.9578
rwrist -9.26524
rhand -32.4828 4.77348
rfingers 7.12502
rthumb -5.71488 -25.1295
lclavicle 6.78353e-015 7.30534e-015
lhumerus 13.134 -12.4194 64.4508
lradius 87.8731
lwrist 25.5792
lhand -22.0683 26.4655
lfingers 7.12502
lthumb 4.34283 56.401
rfemur -23.1844 10.7089 17.5042
rtibia 42.9079
rfoot -20.1008 -12.277
rtoes 10.1494
lfemur -63.0409 35.0815 -28.3047
ltibia 104.357
lfoot -15.0749 -22.3516
ltoes -24.0995
1087
root 2.89091 28.6923 0.1496 -175.373 -18.826 171.39
lowerback 22.9112 -2.30121 -3.27494
upperback 3.80369 -4.76458 -2.58413
thorax -8.55728 -2.50737 0.49097
lowerneck -11.1463 -6.59011 -12.8452
upperneck -5.21967 -7.82997 12.5739
head 1.27271 -3.84021 5.51158
rclavicle 1.60519e-014 -2.95692e-014
rhumerus -20.3114 11.444 -83.4549
rradius 97.5229
rwrist -8.46475
rhand -32.2816 4.60985
rfingers 7.12502
rthumb -5.52058 -25.2982
lclavicle 1.60519e-014 -2.95692e-014
lhumerus 12.6101 -11.6938 64.6116
lradius 88.0569
lwrist 25.4174
lhand -21.4941 25.4261
lfingers 7.12502
lthumb 4.89722 55.3495
rfemur -23.6881 10.6871 17.4542
rtibia 43.2709
rfoot -20.0651 -11.8177
rtoes 10.9414
lfemur -62.0434 35.641 -27.8501
ltibia 104.001
lfoot -15.5205 -21.248
ltoes -24.362
